<?xml version="1.0" encoding="UTF-8"?>
<svg xmlns="http://www.w3.org/2000/svg" xmlns:xlink="http://www.w3.org/1999/xlink" clip-rule="evenodd" stroke-miterlimit="10" viewBox="0 0 850.39 637.80">
    <desc>SVG generated by Lineform</desc>
    <defs/>
    <g>
        <rect width="940.00" height="734.00" x="-25.50" y="-55.50" fill="#5FB7FF" stroke="#000000" stroke-width="2.20"/>
        <path d="M 223.50 49.00 C 171.16 49.00 118.84 59.51 78.91 80.50 C -0.96 122.48 -0.96 190.52 78.91 232.50 C 134.24 261.59 213.37 270.50 283.34 259.28 C 350.32 290.78 452.18 289.47 516.06 255.19 C 582.65 219.45 582.65 161.55 516.06 125.81 C 482.95 108.04 439.59 99.12 396.19 99.03 C 388.26 92.46 378.99 86.23 368.09 80.50 C 328.16 59.51 275.84 49.00 223.50 49.00 Z M 223.50 49.00 " fill="#FFFFFF" stroke="#BFBFBF" stroke-width="6.00"/>
        <path d="M 735.48 183.00 C 699.52 183.00 663.55 187.05 636.11 195.16 C 607.54 203.59 593.99 214.76 595.17 225.81 C 561.74 227.76 529.60 233.37 503.83 242.72 C 438.71 266.35 438.71 304.65 503.83 328.28 C 568.96 351.91 674.56 351.91 739.69 328.28 C 787.65 310.88 800.17 285.50 777.48 263.91 C 798.41 261.97 818.28 258.74 834.86 253.84 C 889.73 237.64 889.73 211.36 834.86 195.16 C 807.42 187.05 771.44 183.00 735.48 183.00 Z M 735.48 183.00 " fill="#FFFFFF" stroke="#BFBFBF" stroke-width="6.00"/>
    </g>
</svg>